<svg xmlns="http://www.w3.org/2000/svg" xmlns:xlink="http://www.w3.org/1999/xlink" width="122" height="122" viewBox="0 0 122 122">
    <defs>
        <path id="b" d="M24.613 0H0v24.613"/>
        <filter id="a" width="124.4%" height="124.4%" x="-12.2%" y="-12.2%" filterUnits="objectBoundingBox">
            <feMorphology in="SourceAlpha" operator="dilate" radius="1" result="shadowSpreadOuter1"/>
            <feOffset in="shadowSpreadOuter1" result="shadowOffsetOuter1"/>
            <feMorphology in="SourceAlpha" radius="1.5" result="shadowInner"/>
            <feOffset in="shadowInner" result="shadowInner"/>
            <feComposite in="shadowOffsetOuter1" in2="shadowInner" operator="out" result="shadowOffsetOuter1"/>
            <feGaussianBlur in="shadowOffsetOuter1" result="shadowBlurOuter1" stdDeviation=".5"/>
            <feColorMatrix in="shadowBlurOuter1" values="0 0 0 0 0.780392157 0 0 0 0 0.537254902 0 0 0 0 1 0 0 0 1 0"/>
        </filter>
        <path id="d" d="M109 0H84.387v24.613"/>
        <filter id="c" width="124.4%" height="124.4%" x="-12.2%" y="-12.2%" filterUnits="objectBoundingBox">
            <feMorphology in="SourceAlpha" operator="dilate" radius="1" result="shadowSpreadOuter1"/>
            <feOffset in="shadowSpreadOuter1" result="shadowOffsetOuter1"/>
            <feMorphology in="SourceAlpha" radius="1.5" result="shadowInner"/>
            <feOffset in="shadowInner" result="shadowInner"/>
            <feComposite in="shadowOffsetOuter1" in2="shadowInner" operator="out" result="shadowOffsetOuter1"/>
            <feGaussianBlur in="shadowOffsetOuter1" result="shadowBlurOuter1" stdDeviation=".5"/>
            <feColorMatrix in="shadowBlurOuter1" values="0 0 0 0 0.780392157 0 0 0 0 0.537254902 0 0 0 0 1 0 0 0 1 0"/>
        </filter>
        <path id="f" d="M24.613 84.387H0V109"/>
        <filter id="e" width="124.4%" height="124.4%" x="-12.2%" y="-12.2%" filterUnits="objectBoundingBox">
            <feMorphology in="SourceAlpha" operator="dilate" radius="1" result="shadowSpreadOuter1"/>
            <feOffset in="shadowSpreadOuter1" result="shadowOffsetOuter1"/>
            <feMorphology in="SourceAlpha" radius="1.5" result="shadowInner"/>
            <feOffset in="shadowInner" result="shadowInner"/>
            <feComposite in="shadowOffsetOuter1" in2="shadowInner" operator="out" result="shadowOffsetOuter1"/>
            <feGaussianBlur in="shadowOffsetOuter1" result="shadowBlurOuter1" stdDeviation=".5"/>
            <feColorMatrix in="shadowBlurOuter1" values="0 0 0 0 0.780392157 0 0 0 0 0.537254902 0 0 0 0 1 0 0 0 1 0"/>
        </filter>
        <path id="h" d="M109 84.387H84.387V109"/>
        <filter id="g" width="124.4%" height="124.4%" x="-12.2%" y="-12.2%" filterUnits="objectBoundingBox">
            <feMorphology in="SourceAlpha" operator="dilate" radius="1" result="shadowSpreadOuter1"/>
            <feOffset in="shadowSpreadOuter1" result="shadowOffsetOuter1"/>
            <feMorphology in="SourceAlpha" radius="1.5" result="shadowInner"/>
            <feOffset in="shadowInner" result="shadowInner"/>
            <feComposite in="shadowOffsetOuter1" in2="shadowInner" operator="out" result="shadowOffsetOuter1"/>
            <feGaussianBlur in="shadowOffsetOuter1" result="shadowBlurOuter1" stdDeviation=".5"/>
            <feColorMatrix in="shadowBlurOuter1" values="0 0 0 0 0.780392157 0 0 0 0 0.537254902 0 0 0 0 1 0 0 0 1 0"/>
        </filter>
        <linearGradient id="i" x1="5.84%" x2="86.375%" y1="19.009%" y2="69.269%">
            <stop offset="0%" stop-color="#DD9FFF"/>
            <stop offset="100%" stop-color="#8760FF"/>
        </linearGradient>
        <linearGradient id="j" x1="-10.701%" y1="48.954%" y2="50.65%">
            <stop offset="0%" stop-color="#DD9FFF"/>
            <stop offset="100%" stop-color="#8760FF"/>
        </linearGradient>
        <linearGradient id="k" x1="50%" x2="50%" y1="0%" y2="98.218%">
            <stop offset="0%" stop-color="#DD9FFF"/>
            <stop offset="100%" stop-color="#8760FF"/>
        </linearGradient>
        <linearGradient id="l" x1="50%" x2="50%" y1="0%" y2="98.218%">
            <stop offset="0%" stop-color="#DD9FFF"/>
            <stop offset="100%" stop-color="#8760FF"/>
        </linearGradient>
    </defs>
    <g fill="none" fill-rule="evenodd">
        <g stroke="#B6B4FF" stroke-linecap="square" opacity=".204">
            <path d="M36.294 1H1v36.176M85.706 1H121v36.176M36.294 121H1V84.824M85.706 121H121V84.824"/>
        </g>
        <g stroke-linecap="square">
            <g transform="translate(7 6)">
                <use fill="#000" filter="url(#a)" xlink:href="#b"/>
                <use stroke="#C493FF" xlink:href="#b"/>
            </g>
            <g transform="matrix(-1 0 0 1 200.387 6)">
                <use fill="#000" filter="url(#c)" xlink:href="#d"/>
                <use stroke="#C493FF" xlink:href="#d"/>
            </g>
            <g transform="matrix(1 0 0 -1 7 199.387)">
                <use fill="#000" filter="url(#e)" xlink:href="#f"/>
                <use stroke="#C493FF" xlink:href="#f"/>
            </g>
            <g transform="rotate(180 100.194 99.694)">
                <use fill="#000" filter="url(#g)" xlink:href="#h"/>
                <use stroke="#C493FF" xlink:href="#h"/>
            </g>
        </g>
        <g opacity=".199">
            <path fill="url(#i)" d="M40.071 53.429c12.584 0 22.786-11.96 22.786-26.715C62.857 6.254 52.655 0 40.071 0 27.487 0 17.286 6.255 17.286 26.714c0 14.754 10.201 26.715 22.785 26.715z" transform="translate(23 25)"/>
            <path fill="url(#j)" d="M77 66c-.521-1.376-1.438-2.517-2.578-3.211L56.73 52.008a1.005 1.005 0 0 0-1.214.12c-5.004 4.43-10.888 6.771-17.015 6.771-6.128 0-12.011-2.341-17.016-6.772a1.007 1.007 0 0 0-1.214-.12L2.578 62.79C1.438 63.483.522 64.624 0 66h77z" transform="translate(23 25)"/>
        </g>
        <path fill="url(#k)" d="M32.256 43.2c10.06 0 18.216-9.664 18.216-21.583 0-16.53-8.156-21.582-18.216-21.582S14.041 5.088 14.041 21.617c0 11.92 8.155 21.582 18.215 21.582z" transform="translate(31 34)"/>
        <path fill="url(#l)" d="M61.778 53.99c-.417-1.05-1.15-1.92-2.06-2.45l-14.146-8.226a.833.833 0 0 0-.97.091c-4 3.38-8.704 5.167-13.602 5.167-4.899 0-9.602-1.786-13.603-5.167a.835.835 0 0 0-.97-.091L2.283 51.54c-.912.53-1.644 1.4-2.06 2.45h61.555z" transform="translate(31 34)"/>
    </g>
</svg>
